# xmcd
#
# Track frame offsets:
#	150
#	18333
#	35490
#	57475
#	77013
#	96940
#	112210
#	132033
#	148198
#	167495
#	184173
#
# Disc length: 2701 seconds
#
# Revision: 3
# Processed by: cddbd v1.5.2PL0 Copyright (c) Steve Scherf et al.
# Submitted via: audiograbber 1.83.01
#
DISCID=960a8b0b
DTITLE=Lory "Bonnie" Bianco - True Love
DYEAR=1989
DGENRE=Pop
TTITLE0=Hold On
TTITLE1=Don't Leave Me Here Without You
TTITLE2=You Wear My Heart Out
TTITLE3=If I Only Would Know
TTITLE4=One Day Lover
TTITLE5=A Cry In The Night
TTITLE6=When The Price Is Your Love
TTITLE7=Deep In My Heart
TTITLE8=Forever Young
TTITLE9=True Love
TTITLE10=Straight From Your Heart
EXTD=
EXTT0=
EXTT1=
EXTT2=
EXTT3=
EXTT4=
EXTT5=
EXTT6=
EXTT7=
EXTT8=
EXTT9=
EXTT10=
PLAYORDER=
